<svg xmlns="http://www.w3.org/2000/svg" style="display: none;">
  <symbol viewBox="0 0 200 60" id="logo-nintendo"><path d="M26.159 54.271C10.478 54.266 0 43.153 0 29.68 0 16.206 10.502 4.966 26.135 5h147.73C189.498 4.966 200 16.206 200 29.68c0 13.473-10.478 24.586-26.159 24.591H26.16zm.047-43.21c-12.414.024-20.034 8.321-20.034 18.587 0 10.262 7.573 18.629 20.034 18.584h147.588c12.461.042 20.036-8.322 20.036-18.584 0-10.263-7.62-18.56-20.034-18.584l-147.59-.003zm155.526 8.664c1.129 0 1.69.382 1.69 1.14 0 .52-.325.913-.864 1.048l.885 1.767h-1.07l-.758-1.62h-.47v1.62h-.964v-3.955h1.551zm-.087-1.546a3.57 3.57 0 0 0 0 7.14 3.57 3.57 0 0 0 0-7.14zm2.887 3.572a2.888 2.888 0 0 1-5.774 0 2.888 2.888 0 0 1 5.774 0zm-3.387-.27h.47c.55 0 .816-.168.816-.56 0-.413-.284-.59-.863-.59h-.423v1.15zm-80.678 9.665c-.01-1.352.019-2.255.463-3.026.544-.95 1.545-1.402 2.454-1.407h-.003c.908.005 1.91.457 2.454 1.407.444.773.462 1.676.452 3.028l-5.82-.002zm5.796 4.65s.005.07.005.935c0 2.82-1.856 3.448-2.887 3.448-1.03 0-2.919-.627-2.919-3.448 0-.845.005-3.184.005-3.184s13.14.005 13.14-.003c0-4.784-4.62-8.746-10.292-8.746-5.674 0-10.271 3.877-10.271 8.66 0 4.784 4.597 8.66 10.27 8.66 4.707 0 8.683-2.686 9.897-6.327l-6.948.005zm21.946-10.74c2.608-.075 7.899 1.633 7.862 7.739-.006 1.084-.003 8.393-.003 8.393h-6.93v-10.13c0-1.344-1.285-2.84-3.187-2.84-1.899 0-3.312 1.496-3.312 2.84l.008 10.13h-6.924l.006-15.423 6.921-.006s-.008 1.24 0 1.623a8.4 8.4 0 0 1 5.559-2.327zm-56.684 0c2.608-.075 7.9 1.633 7.862 7.739-.005 1.084-.003 8.393-.003 8.393h-6.93v-10.13c0-1.344-1.285-2.84-3.186-2.84-1.9 0-3.312 1.496-3.312 2.84l.008 10.13H59.04l-.003-15.423 6.93-.006s-.009 1.24 0 1.623a8.394 8.394 0 0 1 5.558-2.327zm79.579-7.058h6.884v23.195h-6.895l-.003-.892c-2.67 1.676-5.68 1.673-8.026.579-.63-.292-4.77-2.28-4.77-7.647 0-4.071 3.84-8.518 8.868-8.077 1.655.146 2.831.75 3.947 1.376-.006-3.57-.006-8.534-.006-8.534zm.05 15.405v-2.757c0-2.385-1.647-2.993-2.73-2.993-1.11 0-2.736.608-2.736 2.993l.003 2.75-.003 2.743c0 2.382 1.625 3.006 2.733 3.006 1.086 0 2.736-.624 2.736-3.006 0-.99-.003-2.736-.003-2.736zm22.1-.045l-.002 3.267c0 2.46-1.453 3.474-2.85 3.474-1.4 0-2.858-1.015-2.858-3.474l.003-3.325s.005-2.282.005-3.217c0-2.449 1.46-3.455 2.85-3.455 1.392 0 2.85 1.006 2.85 3.455 0 .935-.003 2.664.005 3.283l-.003-.008zm-2.802-8.643c-5.63 0-10.193 3.878-10.193 8.662 0 4.783 4.565 8.66 10.193 8.66 5.631 0 10.194-3.877 10.194-8.66 0-4.784-4.563-8.662-10.194-8.662zm-122.246-1.98v-4.742h6.99v4.741h-6.99zm.016 18.458V25.767l6.974.003v15.423h-6.974zm34.992 0l.003-15.394h-3.793v-2.29l3.796-.002-.006-3.124h6.98v3.121h3.777V25.8h-3.777l.006 15.394h-6.986zm-63.377 0l.003-23.195h7.227l9.997 16.175-.005-16.175h7.17v23.195h-7.16L27.02 25.018v16.175h-7.182z" /></symbol>
  <symbol viewBox="0 0 200 60" id="logo-sega"><path d="M49.708 14.23l-.01 7.69-24.51-.005a.916.916 0 0 0-.91.92c0 .507.407.919.91.919l6.377-.035c10.046 0 18.188 8.118 18.188 18.138 0 10.001-8.142 18.118-18.188 18.118L7.01 60l.01-7.773h24.57c5.757 0 10.414-4.653 10.414-10.384 0-5.727-4.658-10.37-10.414-10.37l-6.407-.084c-4.743 0-8.6-3.837-8.6-8.574 0-4.733 3.858-8.585 8.6-8.585h24.525zm-.01-9.514l.01 7.72-24.525.004c-5.747 0-10.409 4.648-10.409 10.374 0 5.742 4.662 10.39 10.409 10.39l6.407.069c4.757 0 8.604 3.832 8.604 8.57 0 4.742-3.847 8.579-8.604 8.579H7.02l-.01-7.665 24.52-.02a.89.89 0 0 0 .89-.88.892.892 0 0 0-.89-.89l-6.342-.01C15.152 40.958 7 32.847 7 22.836S15.152 4.716 25.188 4.716h24.51zm45.303 0v7.704l-26.21-.004c-4.26 0-7.75 3.43-7.75 7.6v24.53c0 4.334 3.49 7.73 7.75 7.73l26.095-.01.006 7.686-26.101-.011c-8.53 0-15.439-6.894-15.439-15.395V20.1c0-8.5 6.91-15.384 15.439-15.384H95zm-5.577 28.517v7.695h-18.84c.025 1.745 1.708 1.815 1.828 1.818H94.89l-.005 7.65-26.095.011c-3.246 0-5.88-2.62-5.88-5.86V33.232h26.513zM95 14.215v7.715H72.419c-1.809 0-1.834 1.794-1.834 1.794h18.84v7.68H62.91L62.92 20.1a5.87 5.87 0 0 1 5.87-5.885h26.211zm69.953-10.398c5.548 0 10.235 3.444 11.656 8.126l16.225 48.002h-31.196v-7.689h20.499l-13.237-39a4.31 4.31 0 0 0-3.961-2.625 4.281 4.281 0 0 0-3.957 2.635l-15.897 46.68-6.352-.001-25.386-.004c-8.525 0-15.494-6.894-15.494-15.395V20.1c0-8.5 6.91-15.384 15.435-15.384h25.445v7.699h-25.386a7.682 7.682 0 0 0-7.694 7.685v24.446c0 4.25 3.47 7.71 7.714 7.71h17.656V31.404h-14.106v-7.68h21.816v30.898l14.558-42.698c1.405-4.588 5.926-7.975 11.342-8.104l.32-.003zm.005 8.6c1.1 0 2.038.705 2.371 1.684l12.323 36.405H161.61l.015-6.846-5.523 16.285h-9.096l15.583-45.844a2.512 2.512 0 0 1 2.37-1.685zm-26.226 1.793l.01 7.675H116.95c-1.825.045-1.82 1.834-1.82 1.834l.041 17.21c0 .989.81 1.808 1.8 1.808h4.532l-.014-1.809h-4.553v-7.705h12.268v17.229h-15.857c-3.25 0-5.885-2.65-5.885-5.906l-.001-24.446a5.885 5.885 0 0 1 5.885-5.885l25.386-.005zm23.474 27.731h-.579l-.004 1.719.583-1.719zm2.737-8.067l-2.737 8.067h5.451l-2.714-8.067zM186.954 0c1.453 0 2.82.567 3.844 1.58a5.39 5.39 0 0 1 1.595 3.823 5.406 5.406 0 0 1-1.595 3.837 5.42 5.42 0 0 1-3.843 1.585 5.388 5.388 0 0 1-3.828-1.585 5.37 5.37 0 0 1-1.6-3.837c0-2.982 2.44-5.403 5.428-5.403zm0 .755c-1.237 0-2.41.477-3.295 1.357a4.595 4.595 0 0 0-1.366 3.29c0 1.248.476 2.416 1.366 3.295a4.648 4.648 0 0 0 3.296 1.362c2.58 0 4.678-2.087 4.678-4.657 0-1.237-.488-2.41-1.367-3.29a4.657 4.657 0 0 0-3.311-1.357zm.055 1.655c.84.01 1.333.01 1.8.362.452.334.641.836.641 1.393 0 1.402-1.142 1.585-1.432 1.645l1.69 2.604h-.949l-1.645-2.554h-1.55v2.554h-.786V2.41h2.231zm.275.666h-1.72v2.122h1.595c.254 0 .492 0 .73-.06.558-.134.756-.531.756-.968 0-.16-.015-.562-.358-.84-.275-.23-.613-.252-1.003-.254z" fill-rule="evenodd"/></symbol>
  <symbol viewBox="0 0 200 60" id="logo-sony"><path d="M71.25 12c7.675 0 13.817 1.917 18.508 6.183 3.209 2.909 5 7.05 4.95 11.392a15.833 15.833 0 0 1-4.95 11.442c-4.391 4.033-11.233 6.183-18.5 6.183-7.266 0-14-2.15-18.458-6.183a15 15 0 0 1-5.025-11.442c0-4.317 1.817-8.458 5.025-11.392C56.967 14.4 64.333 12 71.25 12m.025 30.583c3.842 0 7.4-1.341 9.9-3.816 2.5-2.5 3.608-5.5 3.608-9.192 0-3.533-1.233-6.842-3.608-9.192-2.45-2.416-6.108-3.783-9.9-3.783-3.792 0-7.442 1.358-9.917 3.783-2.375 2.35-3.616 5.659-3.616 9.192a13 13 0 0 0 3.616 9.192c2.475 2.45 6.109 3.808 9.917 3.808M30.933 26.183c1.334.34 2.628.792 3.884 1.359a11.667 11.667 0 0 1 3.158 2.15c1.642 1.716 2.575 4.016 2.55 6.391a8 8 0 0 1-3.158 6.484 17.5 17.5 0 0 1-5.909 2.908 30.833 30.833 0 0 1-9.95 1.417c-2.933 0-4.55-.342-6.775-.809l-.641-.133a39.167 39.167 0 0 1-7.15-2.317.583.583 0 0 0-.35-.1.7.7 0 0 0-.684.7v1.692h-4.9V33.608h4.367a6.333 6.333 0 0 0 1.142 3.484c1.766 2.166 3.666 3 5.475 3.666 3.058 1 6.266 1.534 9.466 1.634 4.609 0 7.3-1.117 7.884-1.359l.075-.033.05-.017c.516-.191 2.6-.95 2.6-3.266 0-2.284-1.95-2.784-3.225-3.109l-.184-.041c-1.416-.384-4.683-.734-8.25-1.109l-1.266-.133a116.667 116.667 0 0 1-9.975-1.458c-4.15-.917-5.784-2.434-6.8-3.375l-.067-.067A8.5 8.5 0 0 1 0 22.592c0-4.134 2.833-6.634 6.317-8.167a30 30 0 0 1 11.991-2.408c6.834.025 12.392 2.25 14.392 3.283.808.433 1.208-.1 1.208-.5v-1.242H38.3v10.734h-3.933a7.5 7.5 0 0 0-2.45-4.092 10.833 10.833 0 0 0-2.475-1.492 25.833 25.833 0 0 0-10.425-2.041c-3.692 0-7.225.708-9 1.791-1.106.69-1.661 1.54-1.667 2.55 0 1.442 1.217 2.017 1.833 2.192 1.634.5 5.267.858 8.092 1.142l1.7.175c2.725.275 8.433 1.033 10.958 1.666m151.392-8.308v-3.992H200V17.8h-3.967c-1.433 0-2.016.275-3.1 1.492l-11.891 13.583a.833.833 0 0 0-.159.583v6.184c.019.287.052.574.1.858.144.368.453.646.834.75.359.051.72.08 1.083.083h4.05v3.917H165.5v-3.917h3.833a8.333 8.333 0 0 0 1.084-.083c.387-.107.705-.382.866-.75.04-.276.064-.554.075-.833v-6.184c0-.208 0-.208-.275-.533L159.325 19.6c-.633-.658-1.717-1.717-3.383-1.717h-3.817v-3.916h21.567v3.916h-2.6c-.584 0-.984.584-.484 1.217l7.325 8.758c.075.1.125.1.225.025.1-.075 7.45-8.708 7.5-8.783a.75.75 0 0 0-.15-1.067.833.833 0 0 0-.5-.15l-2.683-.008zm-52.367-.025H134c1.842 0 2.167.708 2.192 2.425l.233 13.05-21.517-19.367H99.533v3.917h3.434c2.475 0 2.65 1.367 2.65 2.583V38.9c0 1.067.008 2.458-1.517 2.458h-4.217v3.892h18.034v-3.917h-4.4c-1.767 0-1.834-.808-1.867-2.525V23.125l24.775 22.092h6.308L142.4 20.25c.033-1.817.158-2.425 2.025-2.425h3.942v-3.917h-18.409v3.942z" /></symbol>
  <symbol viewBox="0 0 200 60" id="logo-microsoft"><path d="M20.285 31.405v20.293H0V31.405h20.285zm22.405 0v20.293H22.401V31.405h20.29zm144.407-15.731c.81 0 1.49.069 2.04.208l.465.144v3.705l-.16-.072a4.801 4.801 0 0 0-1.901-.433c-.862.003-1.528.277-2 .82-.395.46-.627 1.102-.697 1.93l-.02.515V24.8h6.478v-4.145l4.329-1.325v5.47H200v3.517h-4.369v8.654c0 1.115.197 1.902.592 2.36.392.448 1.011.672 1.857.672a3.2 3.2 0 0 0 .864-.144 4 4 0 0 0 .62-.236l.256-.148.18-.12v3.553l-.06.032a5.201 5.201 0 0 1-1.348.428 8.744 8.744 0 0 1-1.853.208c-3.4 0-5.217-1.74-5.421-5.18l-.016-.665v-9.414h-6.478v14.815h-4.365V28.317h-3.04v-3.521h3.04v-2.537c0-1.277.279-2.42.837-3.425a5.895 5.895 0 0 1 2.36-2.332c1.008-.548 2.169-.828 3.44-.828m-19.236 8.682c2.849 0 5.11.848 6.714 2.52 1.608 1.673 2.42 3.997 2.42 6.914 0 2.953-.868 5.345-2.58 7.118-1.709 1.768-4.065 2.668-6.994 2.668-2.812 0-5.085-.852-6.757-2.536-1.669-1.68-2.517-3.993-2.517-6.862 0-3.02.868-5.441 2.58-7.19 1.713-1.748 4.114-2.632 7.134-2.632m-16.752 0c.632 0 1.349.074 2.149.224.6.11 1.12.24 1.56.392l.472.184v3.989l-.18-.124a7.202 7.202 0 0 0-1.932-.896 7.602 7.602 0 0 0-2.213-.34c-.787 0-1.405.174-1.856.524a1.6 1.6 0 0 0-.664 1.308c0 .603.173 1.074.52 1.412.16.15.408.318.744.504l.8.4.496.213.552.228c1.713.693 2.924 1.465 3.633 2.316.712.852 1.073 1.913 1.073 3.149 0 1.712-.669 3.113-1.989 4.165-1.312 1.04-3.109 1.572-5.341 1.572-.72 0-1.557-.096-2.473-.288a12.003 12.003 0 0 1-1.82-.508l-.56-.236v-4.201l.18.128a9.14 9.14 0 0 0 2.444 1.24c.883.288 1.68.434 2.389.436 1.896 0 2.82-.6 2.82-1.832a1.8 1.8 0 0 0-.272-1.04 3.2 3.2 0 0 0-.972-.796l-.312-.172-.824-.397-1.068-.46c-1.187-.51-2.073-1.004-2.657-1.484a4.561 4.561 0 0 1-1.304-1.704 5.601 5.601 0 0 1-.424-2.273c0-1.656.664-3.025 1.972-4.069 1.296-1.04 3-1.56 5.057-1.56m-18.216 0c2.849 0 5.105.848 6.714 2.52 1.608 1.673 2.416 3.997 2.416 6.914 0 2.953-.864 5.345-2.577 7.118-1.712 1.772-4.065 2.668-6.997 2.668-2.813 0-5.081-.852-6.754-2.536-1.672-1.68-2.52-3.99-2.52-6.862 0-3.02.872-5.441 2.58-7.19 1.709-1.748 4.113-2.632 7.138-2.632m-28.379 0c.774 0 1.576.086 2.409.26.626.128 1.157.288 1.592.48l.46.228v4.16l-.18-.127c-1.304-.948-2.689-1.428-4.105-1.428-1.656 0-3.017.56-4.04 1.668-1.033 1.112-1.557 2.617-1.557 4.473 0 1.848.5 3.317 1.488 4.361.992 1.048 2.34 1.574 4.041 1.576.61 0 1.3-.133 2.065-.4.506-.178.99-.401 1.448-.668l.66-.432.18-.132v3.949l-.056.032c-1.4.808-3.153 1.22-5.201 1.22a9.602 9.602 0 0 1-4.713-1.148 8.122 8.122 0 0 1-3.229-3.26 9.602 9.602 0 0 1-1.156-4.722c0-1.98.4-3.753 1.188-5.273a8.498 8.498 0 0 1 3.46-3.557c1.501-.836 3.266-1.26 5.242-1.26m16.624.124c.539 0 .992.048 1.36.144l.4.144v4.349l-.184-.132a3.2 3.2 0 0 0-1.004-.408 5.201 5.201 0 0 0-1.296-.192 3.28 3.28 0 0 0-2.789 1.476c-.613.854-.964 1.93-1.052 3.229l-.024.664v9.378h-4.313V24.804h4.313v3.173h.044c.404-1.029.932-1.857 1.66-2.457a4.394 4.394 0 0 1 2.885-1.036m-29.487.32v18.332h-4.313V24.804h4.313zm-29.82-7.25l7.515 19.005 7.741-19.005h6.09v25.582h-4.401V23.451h-.14l-7.81 19.685h-3.12l-7.939-19.685h-.14v19.685h-4.137V17.554h6.342zm105.802 10.379c-1.56 0-2.8.532-3.68 1.584-.885 1.06-1.333 2.58-1.333 4.521 0 1.894.444 3.363 1.332 4.41.88 1.04 2.133 1.56 3.717 1.56 1.593 0 2.813-.513 3.625-1.529.816-1.024 1.228-2.553 1.228-4.545 0-1.964-.44-3.477-1.308-4.485-.86-1.008-2.068-1.52-3.58-1.52m-34.97 0c-1.56 0-2.8.532-3.68 1.584-.884 1.06-1.336 2.58-1.336 4.521 0 1.894.445 3.363 1.336 4.41.886 1.04 2.123 1.56 3.713 1.56 1.6 0 2.809-.51 3.625-1.529.816-1.024 1.232-2.553 1.232-4.545 0-1.964-.44-3.477-1.308-4.485-.87-1.011-2.065-1.518-3.585-1.52M20.285 9v20.289H0V9h20.285zm22.401 0v20.289H22.401V9h20.285zm46.847 7.986c.75.003 1.375.25 1.877.74a2.4 2.4 0 0 1 .748 1.78 2.28 2.28 0 0 1-.772 1.76 2.68 2.68 0 0 1-1.853.705 2.64 2.64 0 0 1-1.844-.7 2.32 2.32 0 0 1-.76-1.764c0-.715.256-1.315.768-1.8a2.6 2.6 0 0 1 1.836-.721" /></symbol>
</svg>
